<?xml version="1.0" standalone="no"?><!DOCTYPE svg PUBLIC "-//W3C//DTD SVG 1.1//EN" "http://www.w3.org/Graphics/SVG/1.1/DTD/svg11.dtd"><svg class="icon" width="64px" height="64.00px" viewBox="0 0 1024 1024" version="1.1" xmlns="http://www.w3.org/2000/svg"><path fill="#318FF3" d="M898.88 34.133H125.12c-25.067 0-45.547 20.48-45.547 45.547v864.747c0 25.066 20.48 45.546 45.547 45.546h773.653c25.067 0 45.547-20.48 45.547-45.546V79.68c0-25.067-20.48-45.547-45.44-45.547z m0 887.467c0 12.48-10.24 22.72-22.72 22.72H147.947c-12.48 0-22.72-10.24-22.72-22.72V102.4c0-12.48 10.24-22.72 22.72-22.72H876.16c12.48 0 22.72 10.24 22.72 22.72v819.2z"  /><path fill="#318FF3" d="M312.96 441.173h128.96l31.573 84.8h44.16l-117.866-309.76h-42.774l-118.08 309.76h44.16l29.867-84.8z m58.987-163.84c1.92-5.12 3.52-12.266 5.013-21.653h0.96c1.707 10.24 3.307 17.493 4.8 21.653l46.827 128.854h-104l46.4-128.854z m230.506 98.134h23.574v-67.734h68.053V283.84h-68.053v-67.627h-23.574v67.627H534.72v23.893h67.733z m159.894 250.346H261.653c-12.48 0-22.72 10.24-22.72 22.72s10.24 22.72 22.72 22.72H762.24c12.48 0 22.72-10.24 22.72-22.72s-10.133-22.72-22.613-22.72z m0-145.386h-182.08c-12.48 0-22.72 10.24-22.72 22.72 0 12.48 10.24 22.72 22.72 22.72h182.08c12.48 0 22.72-10.24 22.72-22.72 0-12.48-10.24-22.72-22.72-22.72z m0 281.92H261.653c-12.48 0-22.72 10.24-22.72 22.72s10.24 22.72 22.72 22.72H762.24c12.48 0 22.72-10.24 22.72-22.72s-10.133-22.72-22.613-22.72z"  /></svg>