<?xml version="1.0" standalone="no"?><!DOCTYPE svg PUBLIC "-//W3C//DTD SVG 1.1//EN" "http://www.w3.org/Graphics/SVG/1.1/DTD/svg11.dtd"><svg class="icon" width="64px" height="64.00px" viewBox="0 0 1024 1024" version="1.1" xmlns="http://www.w3.org/2000/svg"><path fill="#318FF3" d="M1023.687111 546.133333a193.479111 193.479111 0 0 0-57.6-127.715555c-33.365333-32.881778-76.458667-51.683556-122.026667-53.504a266.524444 266.524444 0 0 0-0.113777-25.713778 239.928889 239.928889 0 0 0-71.395556-158.350222C729.031111 137.955556 672.199111 114.346667 612.522667 114.346667c-85.048889 0-154.936889 63.004444-189.838223 101.717333-33.991111-38.968889-102.456889-101.717333-190.862222-101.717333-59.676444 0-116.508444 23.608889-160 66.503111a239.957333 239.957333 0 0 0-71.395555 158.350222c-3.185778 59.448889 11.889778 111.018667 48.924444 167.196444 32.995556 50.062222 118.613333 129.024 181.959111 181.390223 39.253333 32.483556 76.288 60.416 107.121778 80.782222 50.688 33.450667 71.594667 37.717333 84.110222 37.717333 10.865778 0 27.875556-3.128889 64.284445-24.945778 15.900444 14.336 32.056889 28.330667 48.526222 41.984 30.805333 25.486222 59.904 47.388444 84.138667 63.402667 40.732444 26.88 57.799111 30.492444 69.12 30.492445 26.737778 0 78.279111-31.544889 153.201777-93.724445 51.712-42.951111 116.337778-103.082667 142.677334-143.132444 19.968-30.350222 42.467556-73.073778 39.196444-134.229334zM264.248889 640.455111c-76.430222-63.601778-143.530667-130.190222-166.912-165.688889-30.208-45.852444-42.040889-85.475556-39.537778-132.494222C62.862222 248.291556 140.913778 171.804444 231.822222 171.804444c94.378667 0 165.745778 105.073778 166.428445 106.097778a28.728889 28.728889 0 0 0 47.416889 0.654222c0.768-1.052444 76.657778-106.752 166.855111-106.752 90.936889 0 169.016889 76.487111 174.051555 170.467556 0.568889 10.837333 0.341333 21.276444-0.682666 31.544889-2.56 0.910222-5.12 1.877333-7.623112 2.901333l-0.398222 0.142222c-2.360889 0.967111-4.721778 1.991111-7.025778 3.043556l-0.398222 0.170667a206.506667 206.506667 0 0 0-14.222222 7.224889l-0.284444 0.142222c-28.16 15.701333-51.256889 36.693333-67.157334 53.589333l-1.934222-2.076444-0.824889-0.853334-1.621333-1.735111-1.28-1.336889-1.28-1.308444-1.735111-1.792-0.796445-0.768-2.389333-2.389333-1.308445-1.251556-1.991111-1.934222-0.824889-0.768c-23.552-22.186667-56.632889-46.108444-96.654222-55.751111l-0.824889-0.170667a159.345778 159.345778 0 0 0-10.922666-2.190222l-2.275556-0.312889-3.726222-0.540445-0.853333-0.085333a155.363556 155.363556 0 0 0-5.262223-0.540444l-1.934222-0.113778a151.608889 151.608889 0 0 0-10.524444-0.398222c-48.241778 0-94.151111 19.057778-129.28 53.703111a193.507556 193.507556 0 0 0-57.6 127.715555 201.500444 201.500444 0 0 0 6.826666 64.853334 208.782222 208.782222 0 0 0 8.618667 25.315555 228.693333 228.693333 0 0 0 12.8 26.197334l0.227556 0.426666a309.560889 309.560889 0 0 0 13.169777 21.048889l1.308445 1.820445 1.251555 1.763555 1.934223 2.616889 0.739555 0.967111 2.702222 3.498667c10.837333 13.852444 25.002667 29.354667 40.817778 45.312-13.084444 6.940444-19.086222 8.476444-20.764444 8.817778-13.937778-2.360889-68.209778-33.336889-158.321778-108.316445z m672.227555 8.334222c-17.92 27.249778-68.892444 78.165333-126.862222 126.72-66.673778 55.836444-108.515556 80.611556-120.945778 83.996445-12.430222-3.498667-54.385778-28.444444-121.400888-84.394667a1241.315556 1241.315556 0 0 1-82.773334-75.349333l-0.426666-0.426667c-4.067556-4.124444-8.106667-8.248889-12.088889-12.458667l-1.308445-1.422222-4.039111-4.323555c-8.704-9.443556-15.928889-17.948444-21.361778-25.173334l-0.540444-0.711111a141.198222 141.198222 0 0 1-1.905778-2.616889l-0.568889-0.796444a120.405333 120.405333 0 0 1-2.104889-3.072c-22.755556-34.56-31.687111-64.341333-29.809777-99.555556 3.754667-70.030222 61.838222-127.004444 129.450666-127.004444 70.172444 0 124.103111 79.189333 124.586667 79.928889 1.308444 1.962667 2.844444 3.726222 4.551111 5.319111 0.568889 0.512 1.223111 0.995556 1.848889 1.479111l0.853333 0.682667c2.730667 1.962667 5.802667 3.413333 9.045334 4.266666l0.284444 0.113778c0.768 0.199111 1.536 0.341333 2.304 0.455111l1.137778 0.227556c0.512 0.085333 1.052444 0.085333 1.564444 0.142222l1.934222 0.142222h0.056889c9.500444 0.113778 18.460444-4.465778 23.893334-12.231111l0.113777-0.142222 0.284445-0.369778 0.199111-0.284444a124.586667 124.586667 0 0 0 0.739556-0.967111l0.711111-0.967112 0.284444-0.312888 2.56-3.271112c13.539556-16.839111 53.304889-61.639111 100.977778-72.049777l0.853333-0.256a90.453333 90.453333 0 0 1 18.261334-1.905778c67.640889 0 125.724444 56.974222 129.450666 127.004444 1.877333 35.157333-7.025778 64.938667-29.809778 99.584z" /></svg>