<?xml version="1.0" standalone="no"?><!DOCTYPE svg PUBLIC "-//W3C//DTD SVG 1.1//EN" "http://www.w3.org/Graphics/SVG/1.1/DTD/svg11.dtd"><svg class="icon" width="64px" height="64.00px" viewBox="0 0 1024 1024" version="1.1" xmlns="http://www.w3.org/2000/svg"><path fill="#318FF3" d="M887.2 524.8V444H136.8v96c40.8 97.6 96.8 143.2 170.4 143.2 44 0 61.6-12.8 86.4-52 3.2-5.6 3.2-5.6 7.2-11.2 32-51.2 58.4-72.8 112-72.8 56.8 0 85.6 22.4 129.6 81.6 32 43.2 46.4 54.4 75.2 54.4 23.2 0 38.4-12.8 66.4-52.8l12.8-18.4c28.8-43.2 56.8-72 90.4-87.2z m0 82.4c-13.6 13.6-25.6 28-36 44l-12.8 18.4c-40 56.8-69.6 81.6-121.6 81.6-56.8 0-85.6-22.4-129.6-81.6-32-43.2-46.4-54.4-75.2-54.4-24 0-33.6 8-53.6 40.8l-7.2 11.2c-36 57.6-72.8 84-144 84-68 0-125.6-27.2-170.4-79.2v250.4H888V607.2z m-68-232h68c37.6 0 68 30.4 68 68v477.6h34.4c19.2 0 34.4 15.2 34.4 34.4s-15.2 34.4-34.4 34.4H34.4c-19.2 0-34.4-15.2-34.4-34.4s15.2-34.4 34.4-34.4h34.4V444c0-37.6 30.4-68 68-68h68V204.8c0-19.2 15.2-34.4 34.4-34.4s34.4 15.2 34.4 34.4v170.4h204.8V204.8c0-19.2 15.2-34.4 34.4-34.4s34.4 15.2 34.4 34.4v170.4H752V204.8c0-19.2 15.2-34.4 34.4-34.4s34.4 15.2 34.4 34.4v170.4zM239.2 102.4c-19.2 0-34.4-15.2-34.4-34.4s15.2-34.4 34.4-34.4 34.4 15.2 34.4 34.4-16 34.4-34.4 34.4z m272.8 0c-19.2 0-34.4-15.2-34.4-34.4s15.2-34.4 34.4-34.4 34.4 15.2 34.4 34.4-15.2 34.4-34.4 34.4z m272.8 0c-19.2 0-34.4-15.2-34.4-34.4s15.2-34.4 34.4-34.4 34.4 15.2 34.4 34.4-15.2 34.4-34.4 34.4z"  /></svg>