<?xml version="1.0" standalone="no"?><!DOCTYPE svg PUBLIC "-//W3C//DTD SVG 1.1//EN" "http://www.w3.org/Graphics/SVG/1.1/DTD/svg11.dtd"><svg t="1598337597908" class="icon" viewBox="0 0 1283 1024" version="1.1" xmlns="http://www.w3.org/2000/svg" p-id="1897" xmlns:xlink="http://www.w3.org/1999/xlink" width="20.046875" height="16"><defs><style type="text/css"></style></defs><path d="M947.871236 496.785345c-49.045625-10.139538-25.37982-37.171421-25.37982-37.171421s49.045625-79.505539-10.160188-138.732004c-72.73208-72.752731-248.676807 8.466824-248.676807 8.466824-67.672637 20.299726-49.066276-10.160188-40.599452-60.899178 0-60.899178-20.299726-164.091173-199.610531-103.253947-175.903425 62.613194-329.85506 277.443356-329.85506 277.443356C-12.989347 584.757708 0.557571 694.723162 0.557571 694.723162c27.052534 241.903348 284.196165 309.575985 485.520711 324.795617 211.464084 16.933647 495.618947-72.73208 581.959898-255.450266C1154.379131 579.677614 996.978814 506.945533 947.871236 496.785345zM501.297914 950.152777c-209.770719 10.139538-378.941987-94.745822-378.941986-235.15054s169.171267-252.063536 378.941986-262.265026 378.941987 76.11881 378.941987 216.544178-169.171267 272.363262-378.941987 280.850737z m0 0" fill="#E6172D" p-id="1898"></path><path d="M460.698462 545.851621C249.234378 571.21079 274.6555 767.455242 274.6555 767.455242s-1.693365 62.592543 55.757131 94.745823c123.491721 66.082526 250.370171 27.073185 314.656079-55.757132s25.37982-284.216815-184.390899-260.53036z m-54.14637 277.422705c-38.906087 5.080094-71.059367-18.585711-71.059366-50.738989s28.76655-67.672637 67.672637-71.059367c45.679546-3.386729 74.342842 21.993091 74.342842 54.125719s-32.153279 62.592543-71.059367 67.672637z m125.185086-106.578724c-13.526267 10.160188-30.439264 8.466824-37.171421-3.386729a32.111978 32.111978 0 0 1 8.425522-40.516849c15.219632-11.832902 32.153279-8.466824 38.906087 3.386729 6.773459 13.526267 1.693365 30.459914-10.160188 40.599452z m0 0" p-id="1899"></path><path d="M1049.411168 412.199711c16.912997 0 32.153279-11.832902 33.846644-28.766549v-3.38673c25.359169-231.784461-189.491644-191.164358-189.491644-191.164358-18.585711 0-33.825993 15.219632-33.825993 35.519358a33.949898 33.949898 0 0 0 33.825993 33.846644c153.951635-33.825993 120.187595 120.104992 120.187595 120.104991 1.693365 16.912997 16.912997 33.846644 35.519358 33.846644z m0 0" fill="#FF9933" p-id="1900"></path><path d="M1025.724713 7.836603c-74.342842-16.912997-150.564906-1.693365-172.557997 1.693365-1.693365 0-3.386729 1.693365-5.080094 1.693364l-1.693365 1.693365c-20.299726 6.773459-37.171421 25.37982-37.171421 49.066276a50.883545 50.883545 0 0 0 50.73899 50.73899s27.073185-3.386729 45.679546-10.139538S1078.177718 97.543632 1154.379131 226.115448c42.292817 93.052457 18.585711 157.317714 15.219632 167.477902 0 0-10.139538 23.686456-10.139538 49.045625 0 27.073185 21.993091 45.679546 50.73899 45.679546 23.686456 0 42.292817-3.386729 49.066276-42.292816C1340.380792 166.847682 1157.683257 38.337819 1025.724713 7.836603z m0 0" fill="#FF9933" p-id="1901"></path></svg>