<?xml version="1.0" standalone="no"?><!DOCTYPE svg PUBLIC "-//W3C//DTD SVG 1.1//EN" "http://www.w3.org/Graphics/SVG/1.1/DTD/svg11.dtd"><svg class="icon" width="64px" height="64.00px" viewBox="0 0 1024 1024" version="1.1" xmlns="http://www.w3.org/2000/svg"><path fill="#318FF3" d="M512 469.333c65.536 0 118.898-53.361 118.898-118.897S577.536 231.538 512 231.538 393.102 284.9 393.102 350.436 446.464 469.333 512 469.333z m0-180.906c34.247 0 62.009 27.761 62.009 62.009S546.247 412.444 512 412.444s-62.009-27.761-62.009-62.008 27.762-62.01 62.009-62.01z"  /><path fill="#318FF3" d="M423.367 732.16c35.044 38.002 63.26 55.751 88.633 55.751s53.59-17.75 88.633-55.751c27.42-29.696 57.913-71.339 85.788-117.305 24.235-39.708 103.083-177.266 103.083-277.504 0-74.183-28.9-143.815-81.351-196.267-52.452-52.451-122.197-81.35-196.267-81.35s-143.701 28.899-196.153 81.35c-52.451 52.452-81.35 122.084-81.35 196.267 0 100.238 78.961 237.682 103.082 277.504 27.99 45.853 58.482 87.609 85.902 117.305zM291.271 337.351c0-121.742 98.987-220.729 220.729-220.729s220.729 98.987 220.729 220.73c0 28.216-9.216 67.014-26.738 112.07-16.498 42.326-39.367 88.178-66.219 132.779-25.6 42.439-53.361 81.01-78.279 108.544-32.654 36.181-47.673 40.05-49.493 40.391-1.82-0.341-16.84-4.21-49.493-40.391-24.804-27.534-52.68-66.105-78.28-108.544-26.851-44.487-49.72-90.453-66.218-132.779-17.522-45.056-26.738-83.854-26.738-112.07z"  /><path fill="#318FF3" d="M963.015 897.138L917.618 613.83c-5.69-35.612-35.954-61.44-72.022-61.44h-68.494c-15.701 0-28.444 12.743-28.444 28.445s12.743 28.444 28.444 28.444h68.494c7.965 0 14.564 5.689 15.816 13.54l45.397 283.306c0 0.228 0.114 0.455-0.228 0.91-0.341 0.342-0.682 0.342-0.796 0.342H118.329c-0.228 0-0.569 0-0.797-0.342-0.34-0.34-0.227-0.682-0.227-0.91l45.397-283.306c1.252-7.851 7.965-13.54 15.815-13.54h68.38c15.702 0 28.445-12.743 28.445-28.444S262.6 552.39 246.898 552.39h-68.494c-36.068 0-66.333 25.828-72.022 61.44L60.985 897.138c-2.73 16.839 2.048 33.906 13.084 46.762 11.037 12.971 27.08 20.367 44.146 20.367h787.342c17.067 0 33.11-7.396 44.146-20.367a57.899 57.899 0 0 0 13.312-46.762z"  /></svg>