<?xml version="1.0" standalone="no"?><!DOCTYPE svg PUBLIC "-//W3C//DTD SVG 1.1//EN" "http://www.w3.org/Graphics/SVG/1.1/DTD/svg11.dtd"><svg class="icon" width="64px" height="64.00px" viewBox="0 0 1024 1024" version="1.1" xmlns="http://www.w3.org/2000/svg"><path fill="#318FF3" d="M883.2 371.2H651.2V139.2c0-51.2-41.6-92.8-92.8-92.8H139.2c-51.2 0-92.8 41.6-92.8 92.8v419.2c0 51.2 41.6 92.8 92.8 92.8h233.6v233.6c0 51.2 41.6 92.8 92.8 92.8h419.2c51.2 0 92.8-41.6 91.2-94.4V464c0-51.2-41.6-92.8-92.8-92.8z m-512 94.4v139.2H139.2c-25.6 0-46.4-20.8-46.4-46.4V139.2c0-25.6 20.8-46.4 46.4-46.4h419.2c25.6 0 46.4 20.8 46.4 46.4 0 0 0 233.6-1.6 233.6H464c-51.2 0-92.8 41.6-92.8 92.8z m40 0c0-30.4 24-54.4 54.4-54.4h147.2v147.2c0 30.4-24 54.4-54.4 54.4h-147.2v-147.2z m520 417.6c0 25.6-20.8 46.4-46.4 46.4H465.6c-25.6 0-46.4-20.8-46.4-46.4V651.2h139.2c51.2 0 92.8-41.6 92.8-92.8v-139.2h233.6c25.6 0 46.4 20.8 46.4 46.4v417.6z"  /></svg>