<?xml version="1.0" standalone="no"?><!DOCTYPE svg PUBLIC "-//W3C//DTD SVG 1.1//EN" "http://www.w3.org/Graphics/SVG/1.1/DTD/svg11.dtd"><svg class="icon" width="64px" height="64.00px" viewBox="0 0 1024 1024" version="1.1" xmlns="http://www.w3.org/2000/svg"><path d="M939.52 967.168l-53.248-337.92c-5.12-39.936-40.448-69.632-80.384-69.632l-8.704-146.432v-4.096c-7.68-37.376-39.936-64.512-77.824-64.512H302.08c-39.936 0-72.704 28.672-77.824 67.072v3.072L215.04 559.104c-37.376 3.072-67.072 31.232-73.728 68.608l-56.832 339.456c-3.072 16.896 8.704 33.792 27.136 37.376h5.12c15.36 0 28.672-10.752 32.256-27.136l15.872-95.232h696.832l15.36 95.232c3.072 16.896 19.456 29.696 36.352 27.136 16.384-3.072 28.16-18.944 26.112-37.376zM302.08 410.624h416.768c6.656 0 12.8 4.096 13.824 10.752l8.704 139.776H640c-10.752-60.928-62.976-107.008-126.976-107.008s-116.224 46.08-126.976 107.008h-107.52l8.704-138.752c1.536-6.656 8.192-11.776 14.848-11.776z m271.872 150.016H450.048c9.216-25.6 33.28-44.032 61.952-44.032 29.184-0.512 53.76 17.92 61.952 44.032zM174.08 818.688l29.696-179.712c1.024-8.704 8.704-13.824 16.896-13.824h584.704c8.704 0 15.872 6.656 16.896 15.36L849.92 819.2H174.08zM36.864 448.512c-11.264 0-22.016-5.12-29.184-14.848C-4.608 417.28-1.024 394.24 15.36 382.976L489.984 26.624c16.384-12.288 39.424-8.704 50.688 7.68 12.288 16.384 8.704 39.424-7.68 50.688L58.368 440.832c-6.656 4.608-14.336 7.68-21.504 7.68z" fill="#318FF3" /><path d="M987.136 448.512c-7.68 0-15.872-2.56-21.504-7.168L489.984 84.992c-16.384-12.288-19.456-35.328-7.68-50.688 12.288-16.384 35.328-19.456 50.688-7.68L1008.64 382.464c16.384 12.288 19.456 35.328 7.68 50.688-7.168 10.24-17.92 15.36-29.184 15.36z" fill="#318FF3" /></svg>